<svg width="35" height="35" viewBox="0 0 35 35" fill="none" xmlns="http://www.w3.org/2000/svg">
<path d="M34.5 17.5C34.5 26.8888 26.8888 34.5 17.5 34.5C8.11116 34.5 0.5 26.8888 0.5 17.5C0.5 8.11116 8.11116 0.5 17.5 0.5C26.8888 0.5 34.5 8.11116 34.5 17.5Z" stroke="#003E94"/>
<path d="M21.5129 8.75H13.4871C10.875 8.75 8.75 10.875 8.75 13.4871V21.513C8.75 24.125 10.875 26.25 13.4871 26.25H21.513C24.125 26.25 26.25 24.125 26.25 21.513V13.4871C26.25 10.875 24.125 8.75 21.5129 8.75V8.75ZM17.5 22.285C14.8615 22.285 12.715 20.1385 12.715 17.5C12.715 14.8615 14.8615 12.715 17.5 12.715C20.1385 12.715 22.285 14.8615 22.285 17.5C22.285 20.1385 20.1385 22.285 17.5 22.285ZM22.3994 13.8434C21.6197 13.8434 20.9855 13.2092 20.9855 12.4295C20.9855 11.6498 21.6197 11.0155 22.3994 11.0155C23.1791 11.0155 23.8135 11.6498 23.8135 12.4295C23.8135 13.2092 23.1791 13.8434 22.3994 13.8434Z" fill="#003E94"/>
<path d="M17.5017 13.7408C15.429 13.7408 13.7426 15.4271 13.7426 17.4999C13.7426 19.5726 15.429 21.259 17.5017 21.259C19.5745 21.259 21.2608 19.5726 21.2608 17.4999C21.2608 15.4271 19.5745 13.7408 17.5017 13.7408Z" fill="#003E94"/>
<path d="M22.3987 12.0416C22.1848 12.0416 22.0107 12.2157 22.0107 12.4296C22.0107 12.6435 22.1848 12.8176 22.3987 12.8176C22.6127 12.8176 22.7868 12.6436 22.7868 12.4296C22.7868 12.2156 22.6127 12.0416 22.3987 12.0416Z" fill="#003E94"/>
</svg>
