<svg width="35" height="35" viewBox="0 0 35 35" fill="none" xmlns="http://www.w3.org/2000/svg">
<g clip-path="url(#clip0)">
<path d="M34.5007 17.4998C34.5007 26.8886 26.8896 34.4997 17.5008 34.4997C8.11207 34.4997 0.500977 26.8886 0.500977 17.4998C0.500977 8.11109 8.11207 0.5 17.5008 0.5C26.8896 0.5 34.5007 8.11109 34.5007 17.4998Z" stroke="#003E94"/>
<path d="M23.8769 11.3037L7.87174 17.1206C7.35333 17.309 7.38474 18.0028 7.91838 18.1497L11.9855 19.2698L13.5033 23.7616C13.6619 24.2308 14.2994 24.3731 14.6684 24.0216L16.7712 22.0192L20.8971 24.8437C21.402 25.1893 22.1211 24.9325 22.2493 24.3608L24.9818 12.1764C25.1157 11.5795 24.4861 11.0823 23.8769 11.3037ZM21.8703 14.0077L14.436 20.139C14.3619 20.2001 14.3147 20.2847 14.3037 20.3764L14.0175 22.7494C14.0081 22.8268 13.892 22.837 13.8672 22.7627L12.6896 19.2237C12.6356 19.0617 12.706 18.8861 12.8605 18.7967L21.6397 13.7186C21.8416 13.6017 22.0483 13.861 21.8703 14.0077Z" fill="#003E94"/>
</g>
<defs>
<clipPath id="clip0">
<rect width="35" height="35" fill="white"/>
</clipPath>
</defs>
</svg>
