<svg width="35" height="35" viewBox="0 0 35 35" fill="none" xmlns="http://www.w3.org/2000/svg">
<g clip-path="url(#clip0)">
<path d="M34.5007 17.4998C34.5007 26.8886 26.8896 34.4997 17.5008 34.4997C8.11207 34.4997 0.500977 26.8886 0.500977 17.4998C0.500977 8.11109 8.11207 0.5 17.5008 0.5C26.8896 0.5 34.5007 8.11109 34.5007 17.4998Z" stroke="#003E94"/>
<path d="M28.2186 12.5767C27.4686 12.9092 26.6619 13.1341 25.8159 13.2346C26.6797 12.717 27.3426 11.8982 27.6555 10.9208C26.8472 11.4003 25.9516 11.7481 24.9992 11.9356C24.2362 11.123 23.149 10.6151 21.9452 10.6151C19.6355 10.6151 17.7623 12.4884 17.7623 14.7981C17.7623 15.1259 17.7994 15.4451 17.8711 15.7514C14.3948 15.577 11.3124 13.9118 9.24911 11.3803C8.88912 11.998 8.68261 12.717 8.68261 13.4835C8.68261 14.9344 9.42162 16.2153 10.5434 16.9652C9.85804 16.9437 9.21262 16.7556 8.64892 16.4414C8.64861 16.4592 8.64861 16.477 8.64861 16.4945C8.64861 18.5212 10.0911 20.2117 12.0043 20.5957C11.6536 20.6918 11.2833 20.7426 10.9025 20.7426C10.6323 20.7426 10.3706 20.7167 10.1154 20.6681C10.6476 22.3295 12.1921 23.5389 14.0229 23.5729C12.5911 24.695 10.7877 25.3635 8.82736 25.3635C8.49045 25.3635 8.15666 25.3439 7.83005 25.3049C9.68023 26.4922 11.8795 27.1844 14.2416 27.1844C21.9356 27.1844 26.1432 20.8106 26.1432 15.2825C26.1432 15.1013 26.1391 14.9207 26.131 14.7416C26.9489 14.152 27.658 13.4155 28.2186 12.5767Z" fill="#003E94"/>
</g>
<defs>
<clipPath id="clip0">
<rect width="35" height="35" fill="white"/>
</clipPath>
</defs>
</svg>
