<svg width="35" height="35" viewBox="0 0 35 35" fill="none" xmlns="http://www.w3.org/2000/svg">
<path d="M34.5 17.5C34.5 26.8888 26.8888 34.5 17.5 34.5C8.11116 34.5 0.5 26.8888 0.5 17.5C0.5 8.11116 8.11116 0.5 17.5 0.5C26.8888 0.5 34.5 8.11116 34.5 17.5Z" stroke="#003E94"/>
<path fill-rule="evenodd" clip-rule="evenodd" d="M16.6736 23.7081H17.7944C17.7944 23.7081 18.1329 23.6734 18.3058 23.4992C18.4649 23.3393 18.4598 23.039 18.4598 23.039C18.4598 23.039 18.4379 21.6331 19.1358 21.426C19.8239 21.2221 20.7074 22.7848 21.6439 23.3857C22.352 23.8404 22.8901 23.7407 22.8901 23.7407L25.3941 23.7081C25.3941 23.7081 26.704 23.6327 26.0829 22.6699C26.032 22.5911 25.7212 21.9576 24.2211 20.656C22.6511 19.2936 22.8614 19.5139 24.7526 17.1574C25.9044 15.7222 26.3649 14.846 26.2211 14.4707C26.0839 14.1133 25.2368 14.2077 25.2368 14.2077L22.4174 14.2242C22.4174 14.2242 22.2084 14.1975 22.0534 14.2841C21.902 14.3691 21.8045 14.5671 21.8045 14.5671C21.8045 14.5671 21.3583 15.6777 20.7631 16.6222C19.5077 18.6151 19.0058 18.7203 18.8006 18.5966C18.3233 18.3082 18.4425 17.4379 18.4425 16.8197C18.4425 14.8883 18.7558 14.083 17.8323 13.8746C17.5259 13.8053 17.3003 13.7596 16.5166 13.7523C15.5106 13.7425 14.6592 13.7551 14.1771 13.976C13.8563 14.1228 13.6089 14.45 13.7596 14.4688C13.9459 14.4921 14.368 14.5752 14.5917 14.86C14.8806 15.2274 14.8704 16.0527 14.8704 16.0527C14.8704 16.0527 15.0364 18.3263 14.4828 18.6087C14.1027 18.8024 13.5814 18.4069 12.4622 16.5988C11.8887 15.6727 11.4557 14.6489 11.4557 14.6489C11.4557 14.6489 11.3722 14.4576 11.2233 14.3553C11.0426 14.2313 10.7901 14.1918 10.7901 14.1918L8.11103 14.2082C8.11103 14.2082 7.70885 14.2187 7.56121 14.3822C7.42986 14.5276 7.55077 14.8284 7.55077 14.8284C7.55077 14.8284 9.64822 19.4159 12.0231 21.7278C14.2007 23.8473 16.6736 23.7081 16.6736 23.7081Z" fill="#003E94"/>
</svg>
