<svg width="35" height="35" viewBox="0 0 35 35" fill="none" xmlns="http://www.w3.org/2000/svg">
<path d="M34.5 17.5C34.5 26.8888 26.8888 34.5 17.5 34.5C8.11116 34.5 0.5 26.8888 0.5 17.5C0.5 8.11116 8.11116 0.5 17.5 0.5C26.8888 0.5 34.5 8.11116 34.5 17.5Z" stroke="#003E94"/>
<path d="M26.65 11.95C26.1075 10.985 25.5188 10.8075 24.32 10.74C23.1225 10.6588 20.1112 10.625 17.5025 10.625C14.8887 10.625 11.8762 10.6588 10.68 10.7388C9.48375 10.8075 8.89375 10.9837 8.34625 11.95C7.7875 12.9137 7.5 14.5738 7.5 17.4963C7.5 17.4988 7.5 17.5 7.5 17.5C7.5 17.5025 7.5 17.5038 7.5 17.5038V17.5063C7.5 20.4163 7.7875 22.0887 8.34625 23.0425C8.89375 24.0075 9.4825 24.1825 10.6788 24.2638C11.8762 24.3338 14.8887 24.375 17.5025 24.375C20.1112 24.375 23.1225 24.3337 24.3212 24.265C25.52 24.1837 26.1087 24.0088 26.6513 23.0438C27.215 22.09 27.5 20.4175 27.5 17.5075C27.5 17.5075 27.5 17.5038 27.5 17.5013C27.5 17.5013 27.5 17.4988 27.5 17.4975C27.5 14.5738 27.215 12.9137 26.65 11.95ZM15 21.25V13.75L21.25 17.5L15 21.25Z" fill="#003E94"/>
</svg>
